<svg width="43" height="18" viewBox="0 0 43 18" fill="none" xmlns="http://www.w3.org/2000/svg">
<path d="M5.01677 14.324C4.32077 14.324 3.68477 14.198 3.10877 13.946C2.54477 13.694 2.05277 13.346 1.63277 12.902C1.21277 12.446 0.888766 11.912 0.660766 11.3C0.444766 10.688 0.336766 10.028 0.336766 9.32V8.906C0.336766 8.198 0.438766 7.538 0.642766 6.926C0.858766 6.314 1.16477 5.78 1.56077 5.324C1.96877 4.856 2.45477 4.496 3.01877 4.244C3.58277 3.98 4.21277 3.848 4.90877 3.848C5.70077 3.848 6.38477 4.022 6.96077 4.37C7.53677 4.706 7.98677 5.21 8.31077 5.882C8.63477 6.542 8.81477 7.358 8.85077 8.33L8.09477 7.628V0.86H10.9928V14H8.70677V9.914H9.10277C9.06677 10.85 8.86877 11.648 8.50877 12.308C8.16077 12.968 7.68677 13.472 7.08677 13.82C6.48677 14.156 5.79677 14.324 5.01677 14.324ZM5.73677 11.912C6.18077 11.912 6.58277 11.816 6.94277 11.624C7.31477 11.42 7.60877 11.126 7.82477 10.742C8.05277 10.358 8.16677 9.896 8.16677 9.356V8.69C8.16677 8.162 8.05277 7.718 7.82477 7.358C7.59677 6.998 7.29677 6.722 6.92477 6.53C6.55277 6.338 6.15077 6.242 5.71877 6.242C5.23877 6.242 4.80677 6.368 4.42277 6.62C4.05077 6.86 3.75677 7.196 3.54077 7.628C3.32477 8.048 3.21677 8.54 3.21677 9.104C3.21677 9.68 3.32477 10.178 3.54077 10.598C3.75677 11.018 4.05677 11.342 4.44077 11.57C4.82477 11.798 5.25677 11.912 5.73677 11.912ZM19.563 14V11.084H19.077V7.916C19.077 7.412 18.957 7.034 18.717 6.782C18.477 6.53 18.093 6.404 17.565 6.404C17.301 6.404 16.953 6.41 16.521 6.422C16.089 6.434 15.645 6.452 15.189 6.476C14.733 6.5 14.319 6.524 13.947 6.548V4.118C14.223 4.094 14.547 4.07 14.919 4.046C15.291 4.022 15.675 4.004 16.071 3.992C16.467 3.98 16.839 3.974 17.187 3.974C18.195 3.974 19.041 4.118 19.725 4.406C20.421 4.694 20.949 5.132 21.309 5.72C21.669 6.296 21.849 7.04 21.849 7.952V14H19.563ZM16.413 14.252C15.705 14.252 15.081 14.126 14.541 13.874C14.013 13.622 13.599 13.262 13.299 12.794C12.999 12.314 12.849 11.744 12.849 11.084C12.849 10.364 13.035 9.776 13.407 9.32C13.779 8.852 14.301 8.51 14.973 8.294C15.645 8.066 16.419 7.952 17.295 7.952H19.401V9.554H17.277C16.773 9.554 16.383 9.68 16.107 9.932C15.843 10.172 15.711 10.502 15.711 10.922C15.711 11.318 15.843 11.642 16.107 11.894C16.383 12.134 16.773 12.254 17.277 12.254C17.601 12.254 17.889 12.2 18.141 12.092C18.405 11.972 18.621 11.774 18.789 11.498C18.957 11.222 19.053 10.838 19.077 10.346L19.761 11.066C19.701 11.75 19.533 12.326 19.257 12.794C18.993 13.262 18.621 13.622 18.141 13.874C17.673 14.126 17.097 14.252 16.413 14.252ZM24.0263 17.906V15.458H26.0783C26.3903 15.458 26.6543 15.416 26.8703 15.332C27.0863 15.26 27.2603 15.134 27.3923 14.954C27.5243 14.774 27.6323 14.528 27.7163 14.216L30.1463 4.136H32.8823L30.1283 14.792C29.9363 15.56 29.6663 16.172 29.3183 16.628C28.9823 17.084 28.5263 17.408 27.9503 17.6C27.3863 17.804 26.6663 17.906 25.7903 17.906H24.0263ZM27.1223 13.784V11.534H29.2103V13.784H27.1223ZM25.9343 13.784L22.9103 4.136H25.8083L28.6703 13.784H25.9343ZM38.056 14.306C36.652 14.306 35.554 14.018 34.762 13.442C33.97 12.866 33.55 12.056 33.502 11.012H36.058C36.106 11.324 36.292 11.606 36.616 11.858C36.952 12.098 37.45 12.218 38.11 12.218C38.614 12.218 39.028 12.134 39.352 11.966C39.688 11.786 39.856 11.534 39.856 11.21C39.856 10.922 39.73 10.694 39.478 10.526C39.226 10.346 38.776 10.22 38.128 10.148L37.354 10.076C36.166 9.956 35.272 9.626 34.672 9.086C34.084 8.546 33.79 7.856 33.79 7.016C33.79 6.32 33.964 5.738 34.312 5.27C34.66 4.802 35.14 4.448 35.752 4.208C36.376 3.968 37.084 3.848 37.876 3.848C39.148 3.848 40.174 4.13 40.954 4.694C41.734 5.246 42.142 6.05 42.178 7.106H39.622C39.574 6.782 39.406 6.512 39.118 6.296C38.83 6.068 38.404 5.954 37.84 5.954C37.396 5.954 37.042 6.038 36.778 6.206C36.514 6.374 36.382 6.602 36.382 6.89C36.382 7.166 36.496 7.376 36.724 7.52C36.952 7.664 37.324 7.766 37.84 7.826L38.614 7.898C39.826 8.03 40.768 8.366 41.44 8.906C42.112 9.446 42.448 10.172 42.448 11.084C42.448 11.744 42.268 12.32 41.908 12.812C41.548 13.292 41.038 13.664 40.378 13.928C39.718 14.18 38.944 14.306 38.056 14.306Z" fill="#111317"/>
</svg>
