<svg width="13" height="15" viewBox="0 0 13 15" fill="none" xmlns="http://www.w3.org/2000/svg">
<path d="M0.401547 9.662V8.204H1.76955C1.75755 8 1.75155 7.784 1.75155 7.556V7.304C1.75155 7.172 1.75755 7.046 1.76955 6.926H0.725547V5.468H1.87755C2.35755 2.192 4.15755 0.553999 7.27755 0.553999C8.40555 0.553999 9.33555 0.745999 10.0675 1.13C10.8115 1.502 11.3695 2.024 11.7415 2.696C12.1255 3.356 12.3355 4.118 12.3715 4.982H9.83355C9.78555 4.334 9.55155 3.824 9.13155 3.452C8.72355 3.08 8.10555 2.894 7.27755 2.894C6.48555 2.894 5.86155 3.098 5.40555 3.506C4.94955 3.902 4.63755 4.556 4.46955 5.468H8.53755V6.926H4.34355C4.33155 7.082 4.32555 7.25 4.32555 7.43C4.32555 7.706 4.33155 7.964 4.34355 8.204H8.21355V9.662H4.54155C4.73355 10.478 5.06355 11.066 5.53155 11.426C5.99955 11.786 6.61755 11.966 7.38555 11.966C8.21355 11.966 8.83155 11.78 9.23955 11.408C9.65955 11.036 9.89355 10.526 9.94155 9.878H12.4795C12.4435 10.742 12.2335 11.51 11.8495 12.182C11.4775 12.842 10.9195 13.364 10.1755 13.748C9.44355 14.12 8.51355 14.306 7.38555 14.306C5.87355 14.306 4.65555 13.922 3.73155 13.154C2.80755 12.374 2.20755 11.21 1.93155 9.662H0.401547Z" fill="#111317"/>
</svg>
